<svg xmlns="http://www.w3.org/2000/svg" width="409" height="409" viewBox="0 0 409 409">
  <g id="Group_21" data-name="Group 21" transform="translate(-1216 589)">
    <rect id="Rectangle_1" data-name="Rectangle 1" width="409" height="409" rx="28" transform="translate(1216 -589)" fill="#7bc4ba"/>
    <g id="koala_copy" data-name="koala copy" transform="translate(1228.947 -507.971)">
      <path id="Path_59" data-name="Path 59" d="M381.3,49.6c-9.8-33.3-49.9-44.3-80.2-37.4-2.7.6-28.7,7.8-28.8,10.4C238.6,0,200.4-.2,192,0c-8.6-.2-47,0-80.6,22.8a.1.1,0,0,0,.1-.1c1-2.4-26-9.9-28.8-10.5-30.4-7-70.5,4.1-80.2,37.4C-1.2,62.3-1.8,80.4,8.6,90.3A23.1,23.1,0,0,0,18.7,96a42.553,42.553,0,0,0,8,.8,2.711,2.711,0,0,1,2.8,2.7c.5,10.6,12,26.3,27.3,23.9.3,0,.7-.1,1.3-.1V123c-3.3,39.4,7.6,80.5,43.2,102.8,12.2,7.7,26,12.4,40.1,15.2,69.6,14,168.3,3.8,183.2-80.5a140.655,140.655,0,0,0,1.3-37.2c.4,0,.8.1,1,.1,15.3,2.4,26.8-13.3,27.3-23.9a2.843,2.843,0,0,1,2.8-2.7,35.612,35.612,0,0,0,8-.8,23.1,23.1,0,0,0,10.1-5.7C385.5,80.4,385,62.3,381.3,49.6Z" fill="#fff"/>
      <path id="Path_17" d="M297.1,170.7c0-8.9-8.7-16.1-19.4-16.1s-19.4,7.2-19.4,16.1,8.7,16.1,19.4,16.1S297.1,179.6,297.1,170.7Z" fill="#fff" opacity="0.98"/>
      <path id="Path_18" d="M125.9,170.7c0-8.9-8.7-16.1-19.4-16.1S87,161.8,87,170.7s8.7,16.1,19.4,16.1S125.9,179.6,125.9,170.7Z" fill="#fff" opacity="0.98"/>
      <path id="Path_19" d="M124.7,112a10.968,10.968,0,0,0-11,11h0v17.3a10.968,10.968,0,0,0,11,11h0a10.968,10.968,0,0,0,11-11h0V123A11.032,11.032,0,0,0,124.7,112Z" fill="#1f443e"/>
      <path id="Path_20" d="M259.5,112a10.968,10.968,0,0,0-11,11h0v17.3a11,11,0,0,0,22,0V123A11.032,11.032,0,0,0,259.5,112Z" fill="#1f443e"/>
      <path id="Path_21" d="M227,163c0-19.3,0-49.9-34.9-49.9s-34.9,30.6-34.9,49.9a34.9,34.9,0,0,0,69.8,0Z" fill="#428479"/>
    </g>
  </g>
</svg>