<svg xmlns="http://www.w3.org/2000/svg" width="53" height="53" viewBox="0 0 53 53">
    <g fill="none" transform="translate(0 2.5)">
        <circle cx="24" cy="24" r="22" fill="#00A1E0"/>
        <path fill="#032E61"
              d="M24,47.9 C10.8,47.9 0.1,37.2 0.1,24 C0.1,10.8 10.8,0.1 24,0.1 C37.2,0.1 47.9,10.8 47.9,24 C47.9,37.2 37.2,47.9 24,47.9 Z M24,3.9 C12.9,3.9 3.9,12.9 3.9,24 C3.9,35.1 12.9,44.1 24,44.1 C35.1,44.1 44.1,35.1 44.1,24 C44.1,12.9 35.1,3.9 24,3.9 Z"/>
        <g transform="translate(13 8)">
            <circle cx="11" cy="10.9" r="8.9" fill="#FFF"/>
            <path fill="#032E61"
                  d="M11,21.7 C5,21.7 0.1,16.8 0.1,10.8 C0.1,4.9 5,0 11,0 C17,0 21.9,4.9 21.9,10.9 C21.9,16.9 17,21.7 11,21.7 Z M11,4 C7.2,4 4.1,7.1 4.1,10.9 C4.1,14.7 7.2,17.8 11,17.8 C14.8,17.8 17.9,14.7 17.9,10.9 C17.9,7.1 14.8,4 11,4 Z"/>
        </g>
        <g transform="translate(10 26)">
            <path fill="#FFF"
                  d="M26,14 C26,7.3 20.7,2 14,2 C7.3,2 2,7.3 2,14 L2,16 C2,16 5.7,20 14,20 C22.3,20 26,16 26,16 L26,14 Z"/>
            <path fill="#032E61"
                  d="M14,22 C4.9,22 0.7,17.5 0.5,17.4 C0.2,17 0,16.5 0,16 L0,14 C0,6.1 6.1,0 14,0 C21.9,0 28,6.1 28,14 L28,16 C28,16.5 27.8,17 27.5,17.4 C27.3,17.5 23.1,22 14,22 Z M4,15.1 C5.2,16 8.4,18 14,18 C19.6,18 22.8,16 24,15.1 L24,14 C24,8.4 19.6,4 14,4 C8.4,4 4,8.4 4,14 L4,15.1 Z"/>
        </g>
        <path fill="#032E61"
              d="M46,28 C45.5,28 45,27.8 44.6,27.4 L39.6,22.4 C38.8,21.6 38.8,20.4 39.6,19.6 C40.4,18.8 41.6,18.8 42.4,19.6 L46,23.2 L49.6,19.6 C50.4,18.8 51.6,18.8 52.4,19.6 C53.2,20.4 53.2,21.6 52.4,22.4 L47.4,27.4 C47,27.8 46.5,28 46,28 Z"/>
    </g>
</svg>